<?xml version="1.0" encoding="utf-8"?><svg viewBox="0 0 71 70" xmlns="http://www.w3.org/2000/svg" xmlns:xlink="http://www.w3.org/1999/xlink"><style>:root>svg{display:none}:root>svg:target{display:block}</style><svg viewBox="0 0 18 10" id="arrowdown" xmlns="http://www.w3.org/2000/svg"><path d="M.493.75l8.5 8.5 8.5-8.5"/></svg><svg viewBox="0 0 20 24" id="loc" xmlns="http://www.w3.org/2000/svg"><path fill-rule="evenodd" clip-rule="evenodd" d="M3.669 16.556a9.113 9.113 0 1112.887 0L10.113 23l-6.444-6.444zm3.866-9.02a3.645 3.645 0 105.155 5.154 3.645 3.645 0 00-5.155-5.155z"/></svg><svg viewBox="0 0 71 70" id="location" xmlns="http://www.w3.org/2000/svg"><path fill-rule="evenodd" clip-rule="evenodd" d="M17.035 48.29c-10.38-10.38-10.38-27.209 0-37.589 10.38-10.38 27.208-10.38 37.588 0 10.38 10.38 10.38 27.209 0 37.588L35.829 67.083 17.035 48.29zM28.31 21.977c-4.152 4.152-4.152 10.883 0 15.035 4.152 4.152 10.883 4.152 15.035 0 4.152-4.152 4.152-10.883 0-15.035-4.151-4.152-10.883-4.152-15.035 0z"/></svg><svg viewBox="0 0 22 22" id="tel" xmlns="http://www.w3.org/2000/svg"><path d="M20.912 15.92v3a2 2 0 01-2.18 2 19.79 19.79 0 01-8.63-3.07 19.5 19.5 0 01-6-6 19.79 19.79 0 01-3.07-8.67A2 2 0 013.022 1h3a2 2 0 012 1.72c.126.96.361 1.903.7 2.81a2 2 0 01-.45 2.11l-1.27 1.27a16 16 0 006 6l1.27-1.27a2 2 0 012.11-.45c.907.339 1.85.574 2.81.7a2 2 0 011.72 2.03z"/></svg></svg>